
<svg xmlns="http://www.w3.org/2000/svg" version="1.1" xmlns:xlink="http://www.w3.org/1999/xlink" preserveAspectRatio="none" x="0px" y="0px" width="1200px" height="200px" viewBox="0 0 1200 200">
<defs>
<g id="Layer0_0_FILL">
<path fill="#F92729" stroke="none" d="
M 162.2 99.75
L 162.2 98.75
Q 161.2 70.35 141.95 49 130.8 36.7 116.45 30.05 103.35 24.3 87.9 23.55 70.3 22.9 54.6 28.85
L 51.4 30.05
Q 26.95 41.5 15 66.8 1.3 96.05 12.05 126.55 19.45 147.4 35.35 160.7
L 38.05 162.4
Q 42.1 165.65 48.3 169.15 64.55 177.7 84.05 177.7 116.45 177.7 139.25 154.95 162.2 132.15 162.2 99.75
M 89.15 30.6
Q 90.7 30.8 98.55 32.4 127.65 40.95 142.95 67.4 146.25 74.1 147.95 79.1 145.75 70.75 141.7 63.45 128.2 39.3 102.45 30.05
L 97.3 28.55
Q 93.7 27.35 89.55 26.7 98.6 27.4 107.5 30.05 125.7 35.95 139.25 51.2 159.1 73.15 159.1 99.15 159.85 110.35 156.5 119.3 153.55 129 144.6 135.95 139.5 139.45 131.05 143.4 108.45 153.65 85.3 144.95 81.15 143.4 75.75 140.75 82.4 144.6 88.2 146.6 111.5 155.5 134.2 145.15
L 139.55 142.25
Q 135.4 146.2 130.25 149.1 107.95 163.15 82.4 157.05 77.65 156.05 71.9 153.65 78.55 156.95 85.7 158.5 111.15 164.6 133.6 151 134.7 150.15 135.05 150 130.75 153.4 125.4 157.05 99.55 172.95 69.5 166 63.2 164.3 57.75 162.05 64.7 165.7 73.6 167.9 103.3 174.85 129.4 158.5 133.45 155.8 136.05 153.65 114.55 174.5 84.05 174.5 65.85 174.5 51.4 167.9
L 50.9 167.25
Q 48.2 165.95 44.35 163.5 40.95 161.7 38.05 158.85 29.2 150.5 26.6 139.45 25.55 134.45 25.95 123.85 26.3 99.4 43.95 81.85
L 51.8 75.55
Q 46.05 79.35 41.05 83.95 23.2 101.3 22.85 125.85
L 23.15 132.2
Q 21.4 126.95 20.75 120.75 17.9 94.8 34.4 74.1 37.55 70.25 41.95 66.3 36.05 70.8 31.7 76.45 15.05 97.35 17.9 123.2
L 17.9 124.65
Q 16.7 119.9 15.95 112.95 12.6 82.7 31.7 59.1 34.8 55.2 38.15 51.95 33.2 56.2 28.55 61.55 9.35 85.55 12.9 116.1 13.05 119.3 14.5 123.85 4.75 95.65 17.65 68.25 24.35 54.5 34.4 45.1
L 35.6 44.25
Q 37.7 42 41.65 39.3 44.8 36.95 48.3 35.4 58.8 30.7 70.3 32.4 74.85 33.05 85.05 37.3 107.85 47.1 117 70.1 118.7 74.65 120.05 79.9 118.95 72.35 116.25 66.55 107.2 43.7 84.05 33.85
L 78.45 31.45
Q 84.4 32.25 89.85 33.85 115.05 41.2 127.95 64.05 130.3 68.5 131.9 72.9 129.65 66.15 126.5 60.9 113.9 37.9 89.15 30.6 Z"/>

<path fill="#FFFFFF" stroke="none" d="
M 277.45 137.9
Q 274.9 137.55 273.45 137.55 269 137.55 267.1 140.45 264.5 143.85 264.5 150.5 264.5 153 264.85 155.8
L 266.3 160.15
Q 267.9 161.85 269.3 162.65 270.7 164.05 273.45 164.05 277.7 164.05 280.5 160.15 282.25 156.75 282.25 150.5 282.25 147.6 281.95 144.95 281.35 142.75 280.5 140.75 279.45 139.05 277.45 137.9
M 273.45 141.75
Q 275.05 141.75 275.25 142.25
L 276.8 143.8
Q 277.45 145.1 277.45 146.75
L 278 150.5
Q 278 155.5 276.8 157.25 276 159.75 273.45 159.75 272.2 159.75 271.6 158.7 270.75 158.3 270.5 156.75
L 269.3 154.35 269.3 150.5
Q 269.3 141.75 273.45 141.75
M 213.15 140.1
Q 211.75 141.85 211.15 143.8 210.25 146.8 210.25 150.5 210.25 154.4 211.15 156.75 211.75 159.45 213.15 160.95 214.25 162.55 216.25 163.1 217.95 164.05 219.4 164.05 220.95 164.05 222.5 163.1 224.5 163.1 225.25 162.4
L 224.35 158.25 222.5 159.5 220.8 159.75
Q 219.25 159.75 217.95 158.7 216.9 158.15 216.25 156.75 215.5 155.9 215.1 154.35
L 215.1 150.5
Q 215.1 146.05 216.55 143.8 217.85 141.75 219.95 141.75 221.35 141.75 222.5 142.05
L 224 142.25 225.25 138.65 222.5 137.55 216.25 137.9
Q 215.65 138.25 213.15 140.1
M 244.85 51
L 244.85 45.85 196.85 45.85 196.85 51 217.95 51 217.95 106.05 223.75 106.05 223.75 51 244.85 51
M 260.05 72.1
L 260.05 51 292 51 292 45.85 254.2 45.85 254.2 106.05 293.45 106.05 293.45 100.3 260.05 100.3 260.05 77.15 290.15 77.15 290.15 72.1 260.05 72.1
M 445 137.9
L 439.8 137.9 439.8 163.1 453.4 163.1 453.4 158.7 445 158.7 445 137.9
M 340.65 106.05
L 340.65 100.3 312.05 100.3 312.05 45.85 306.15 45.85 306.15 106.05 340.65 106.05
M 343.55 137.9
L 339.55 137.9 333.65 151.95 332.9 149.05 327.3 137.9 322.7 137.9 322.7 163.1 327.3 163.1 327.3 149.85 326.95 145.25 332.9 158.7 334.3 158.7 339.55 145.25 339.2 163.1 343.55 163.1 343.55 137.9
M 393.75 137.9
Q 391.8 137.55 390.4 137.55
L 384.5 137.9 384.5 163.1 389.55 163.1 389.55 154.35 389.95 154.35 390.4 154.95 391.45 154.95
Q 393.2 154.95 394.35 154.35
L 397.5 152.85
Q 398 151.5 398.95 149.85 399.7 148.35 399.7 146.1 399.7 143.55 398.95 141.75
L 396.65 139
Q 395.45 137.9 393.75 137.9
M 393.75 142.25
Q 394.35 143.15 394.35 143.8 394.9 144.65 394.9 146.1 394.9 147.65 394.35 148.35 394.35 149.1 393.75 149.5 392.95 150.5 392.7 150.5
L 389.55 150.5 389.55 142.05
Q 390.2 141.75 391 141.75 391.6 141.75 392.7 142.05 393.3 142.05 393.75 142.25
M 355.55 72.1
L 355.55 51 387.45 51 387.45 45.85 349.65 45.85 349.65 106.05 388.95 106.05 388.95 100.3 355.55 100.3 355.55 77.15 385.55 77.15 385.55 72.1 355.55 72.1
M 410.85 60.05
Q 417.35 52.55 427.2 52.55 436.9 52.55 445 60.3
L 445 52.55
Q 436.9 46.5 427.55 46.5 415.4 46.5 406.4 55.7 397.5 64.5 397.5 77 397.5 89.85 406.4 97.75 415.25 106.7 427.55 106.7 436.8 106.7 445 101.65
L 445 92.95
Q 437.05 100.7 427.55 100.7 418.55 100.7 411.6 94.9 403.9 88.4 403.9 76.6 403.9 66.95 410.85 60.05
M 611.85 137.9
L 607.9 137.9 608.4 154.95 607.9 154.95 606.5 150.5 599 137.55 595.35 137.55 595.35 163.1 599.75 163.1 599.5 146.6 601.15 151 608.4 163.1 611.85 163.1 611.85 137.9
M 498.05 137.9
L 493.65 137.9 493.65 163.1 498.05 163.1 498.05 137.9
M 548.65 137.55
L 545.25 137.55 537.7 163.1 542.35 163.1 543.8 157.25 549.65 157.25 551.25 163.1 556.15 163.1 548.65 137.55
M 548.65 153.9
L 544.45 153.9 546.7 143.8 548.65 153.9
M 505.05 97.75
Q 514.4 89.2 514.4 76.6 514.4 64.5 505.05 55.7 496.25 46.5 483.95 46.5 471.35 46.5 462.6 55.7 453.4 64.55 453.4 76.25 453.4 90.1 463.6 98.9 472.25 106.7 483.95 106.7 496.45 106.7 505.05 97.75
M 507.25 76.6
Q 507.25 86.95 500.75 94 493.8 100.7 483.95 100.7 473.65 100.7 467.05 94 460.2 86.85 460.2 76.6 460.2 66.8 467.05 60.05 473.85 52.55 483.95 52.55 493.65 52.55 500.75 60.05 507.25 66.75 507.25 76.6
M 534.05 44.6
L 533.7 44.6 523.65 106.05 530.7 106.05 536.25 65.15 556.15 108.15 575.8 65.15 581.25 106.05 587.9 106.05 578.7 44.05 556.15 93.45 534.05 44.6
M 637.95 45.5
L 630.95 45.5 630.95 106.05 637.95 106.05 637.95 45.5
M 919.15 137.55
L 912.55 137.9 912.55 163.1 917.7 163.1 917.7 152.85 919.6 153.4 923.65 163.1 928.8 163.1 924.45 153.4 922.9 152.45
Q 924.9 151.95 925.9 149.85 927.1 147.45 927.1 144.65 927.1 142.9 926.55 140.75 925.5 139.45 924.45 139 923.45 137.9 922.2 137.9
L 919.15 137.55
M 917.7 142.05
L 918.15 142.05 919.6 141.75
Q 921.1 141.75 921.45 143.2 922.55 143.85 922.55 145.25 922.55 147.5 921.45 148.35 920.45 149.5 919.15 149.5
L 917.7 149.5 917.7 142.05
M 818.85 138.65
Q 817.85 137.85 816.35 137.55
L 810.05 137.55
Q 808.65 137.9 807.7 139 806.9 139.45 806.3 140.75 805.5 142.3 805.5 143.8 805.5 146.1 806.3 147.6 806.85 148.9 807.7 149.85
L 812.3 153.4
Q 813.55 154.1 814.55 154.95 814.9 156.05 814.9 156.75 814.9 159.75 811.55 159.75 809.45 159.75 808.6 159.5
L 806.3 158.25 804.85 162.4 807.7 163.1
Q 809.45 164.05 811.85 164.05 813.25 164.05 814.9 163.1 816.35 162.75 817.4 161.65 818.4 160.6 818.85 159.75 819.75 158.3 819.75 156.4 819.75 154.4 818.85 152.85 818.35 151.7 817.4 150.5 814.95 148.45 814.9 148.35
L 813.1 146.75
Q 811.55 146.65 810.85 145.25 810.4 145.2 810.4 143.8 810.4 142.4 810.85 142.05 811.9 141.75 813.25 141.75 814.35 141.75 815.9 142.05 816.3 142.25 817.8 142.25
L 818.85 138.65
M 704.6 46
L 698.3 46 698.3 73.85 698.3 92.55 688.05 81.8 676.85 70 652.95 45.05 652.95 70.9 652.95 96.5 652.95 106.05 659.3 106.05 659.3 92.3 659.3 82.3 659.3 60.95 704.6 108.15 704.6 103.4 704.6 90.05 704.6 68.95 704.6 46
M 653.25 143.8
L 653.05 144.3
Q 652.3 146.55 652.3 150.5 652.3 154.9 653.25 156.75 653.5 159.45 655.15 160.95 656.15 162.5 658.1 163.1 659.8 164.05 661.7 164.05 662.85 164.05 664.05 163.45 664.6 163.35 664.9 163.1 666.7 163.1 667 162.4
L 666.55 158.25 664.9 159.5
Q 664.1 159.75 662.65 159.75 661.05 159.75 660.25 158.7 659.05 158.15 658.1 156.75
L 657.35 154.35 657.35 150.5
Q 657.35 146.35 658.8 143.8 659.45 141.75 662.15 141.75 663.3 141.75 664.9 142.05
L 666.35 142.25 667 138.65 664.9 137.55 658.1 137.9
Q 657.15 138.5 655.15 140.1 653.5 141.85 653.25 143.8
M 707.7 137.9
L 707.25 137.9 707.25 163.1 717.85 163.1 720.05 163.1 720.05 161.35 720.05 158.7 712.1 158.7 712.1 152.45 719.15 152.45 719.15 150.3 719.15 148.35 717.3 148.35 712.1 148.35 712.1 142.65 712.1 142.05 720.05 142.05 720.05 137.9 707.7 137.9
M 734.65 51.15
L 734.65 57 734.65 106.05 740.15 106.05 740.15 51.15 761.4 51.15 761.4 46 713.55 46 713.55 51.15 714.6 51.15 734.65 51.15
M 810.4 106.05
L 810.4 100.3 777.1 100.3 777 91.5 777 76.25 806.9 76.25 806.9 71.2 777 71.2 777 50.8 808.9 50.8 808.9 45.65 770.95 45.65 770.95 91.5 770.95 106.05 775.85 106.05 810.4 106.05
M 872.05 137.9
L 859.45 137.9 859.45 163.1 872.05 163.1 872.05 158.7 864.35 158.7 864.35 152.45 871.2 152.45 871.2 148.35 864.35 148.35 864.35 142.05 872.05 142.05 872.05 137.9
M 828.25 46.1
L 822.6 46.1 822.6 106.05 857.15 106.05 857.15 100.3 828.25 100.3 828.25 46.1
M 872.05 46.1
L 866.05 46.1 866.05 106.05 901.45 106.05 901.45 100.3 872.05 100.3 872.05 46.1
M 916.2 45.6
L 910.3 45.6 910.3 106.05 916.2 106.05 916.2 45.6
M 1082.95 142.05
L 1084.4 142.25 1085.6 138.65 1082.95 137.55 1076.6 137.9
Q 1075.15 138.65 1073.55 140.1 1072.15 141.6 1071.8 143.8 1070.65 146.5 1070.65 150.5 1070.65 154.4 1071.8 156.75 1072.15 159.45 1073.55 160.95 1074.65 162.5 1076.6 163.1 1078.2 164.05 1079.95 164.05 1081.25 164.05 1082.95 163.1 1085.25 163.1 1085.6 162.4
L 1085.25 158.25 1082.95 159.5
Q 1082.4 159.75 1081 159.75 1079.45 159.75 1078.5 158.7 1077.75 158.3 1076.6 156.75
L 1075.55 154.35 1075.55 150.5
Q 1075.55 146.05 1077.05 143.8 1077.8 141.75 1080.8 141.75 1081.95 141.75 1082.95 142.05
M 986.45 137.9
L 981.05 137.9 976.8 157.25 976.25 152.85 972.3 137.9 967.05 137.9 974.8 163.1 978.2 163.1 986.45 137.9
M 1029.65 137.9
L 1025.25 137.9 1025.25 163.1 1029.65 163.1 1029.65 137.9
M 1003.35 70.7
L 1003.35 53.7 1026.75 53.7 1026.75 47.75 997.1 47.75 997.1 106.05 1026.75 106.05 1026.75 100.2 1003.35 100.2 1003.35 77 1026.1 77 1026.1 70.7 1003.35 70.7
M 978.2 98.5
Q 981.9 94.6 983.75 89.55 985.2 85.3 985.2 78.05
L 985.2 76.6 961.15 76.6 961.15 82.5 978.2 82.5
Q 977.9 88.65 974.8 92.55 972.15 96.2 967.05 98.5 963.05 100.7 958.25 100.7 948.1 100.7 941.4 94 934.3 86.85 934.3 77 934.3 66.85 941.4 60.05 948.2 52.55 958.55 52.55 969.2 52.55 977.9 63.7
L 982.75 59.5
Q 976.3 52.25 971.6 49.45 965.05 46.5 958.55 46.5 945.6 46.5 936.3 55.7 927.35 64.35 927.35 76.6 927.35 89.85 936.3 97.75 944.8 106.7 957.4 106.7 970.15 106.7 978.2 98.5
M 1091 47.75
L 1083.9 47.75 1083.9 92.55 1039.1 45.05 1039.1 106.05 1045.4 106.05 1045.4 60.95 1091 108.15 1091 47.75
M 1138.1 142.05
L 1138.1 137.9 1125.5 137.9 1125.5 163.1 1138.1 163.1 1138.1 158.7 1130.3 158.7 1130.3 152.45 1137.55 152.45 1137.55 148.35 1130.3 148.35 1130.3 142.05 1138.1 142.05
M 1183.15 143.8
Q 1183.15 142.6 1183.95 142.05 1184.75 141.75 1186.05 141.75 1187.05 141.75 1188.75 142.05 1189.3 142.25 1190.6 142.25
L 1191.75 138.65
Q 1190.85 137.85 1189.2 137.55
L 1182.7 137.55
Q 1181.4 138.15 1181.05 139 1179.7 139.45 1179.2 140.75 1178.3 142.45 1178.3 143.8 1178.3 145.85 1179.2 147.6 1179.65 148.9 1181.05 149.85 1181.7 151.15 1183.15 151.95
L 1185.5 153.4 1187.3 154.95
Q 1187.75 155.9 1187.75 156.75 1187.75 159.75 1184.15 159.75 1182.05 159.75 1181.2 159.5
L 1179.2 158.25 1177.8 162.4
Q 1178.9 162.85 1181.05 163.1 1182.6 164.05 1184.55 164.05 1185.9 164.05 1187.75 163.1 1189.25 162.75 1190.3 161.65 1191.3 160.85 1191.75 159.75 1192.7 158.4 1192.7 156.4 1192.7 154.4 1191.75 152.85 1191.3 151.35 1190.3 150.5
L 1185.85 146.75
Q 1184.15 146.55 1183.95 145.25 1183.15 145.1 1183.15 143.8
M 1150.15 60.3
L 1150.15 52.55
Q 1142.35 46.5 1133.05 46.5 1120.4 46.5 1111.45 55.7 1103 64.5 1103 77 1103 89.85 1111.45 97.75 1120.35 106.7 1133.05 106.7 1142.45 106.7 1150.15 101.65
L 1150.15 92.95
Q 1142.6 100.7 1133.05 100.7 1124.05 100.7 1117.1 94.9 1109.4 88.4 1109.4 76.6 1109.4 66.75 1115.85 60.05 1122.95 52.55 1133.05 52.55 1142.35 52.55 1150.15 60.3
M 1169 70.7
L 1169 53.7 1192.1 53.7 1192.1 47.75 1161.8 47.75 1161.8 106.05 1192.1 106.05 1192.1 100.2 1169 100.2 1169 77 1191.75 77 1191.75 70.7 1169 70.7 Z"/>

<path fill="#F5F5F5" fill-opacity="0.16862745098039217" stroke="none" d="
M 687.2 80.85
L 688.05 81.8 698.3 92.55 698.3 73.85
Q 693.55 77.25 687.2 80.85
M 770.95 91.5
L 756.9 91.5
Q 751.4 124.7 739.45 142.05
L 704.6 103.4 704.6 108.15 659.3 60.95 659.3 82.3
Q 661.25 85.3 664.35 89.3 663.1 90.05 659.3 92.3
L 659.3 106.05 652.95 106.05 652.95 96.5
Q 629 114.5 629 141.3 629 162 644.25 176.25 659.85 190.45 684.7 190.45 715.2 190.45 737 170.65
L 753.9 187.6 782.5 187.6 752.8 156.4
Q 768.1 139.2 775.85 106.05
L 770.95 106.05 770.95 91.5
M 717.3 148.35
L 719.15 148.35 719.15 150.3 725.1 156.9
Q 722.8 159.3 720.05 161.35
L 720.05 163.1 717.85 163.1
Q 705.25 172.1 688.8 172.1 673.7 172.1 664.05 163.45 662.85 164.05 661.7 164.05 659.8 164.05 658.1 163.1 656.15 162.5 655.15 160.95 653.5 159.45 653.25 156.75 652.3 154.9 652.3 150.5 652.3 146.55 653.05 144.3 652.5 141 652.5 137.4 652.5 116.55 675.25 102.7
L 707.7 137.9 720.05 137.9 720.05 142.05 712.1 142.05 712.1 142.65 717.3 148.35
M 778.9 91.5
L 777 91.5 777.1 100.3
Q 778.25 95.1 778.9 91.5
M 734.65 57
L 734.65 51.15 714.6 51.15
Q 714.5787109375 51.3755859375 714.55 51.6 714.5296875 51.750390625 714.5 51.9 713.4333984375 59.17890625 708.15 65.35 706.75 67.1 704.6 68.95
L 704.6 90.05
Q 718.55 81.75 726.1 73.05 732.45 65.9 734.65 57
M 733.6 33.95
Q 732.9171875 31.9392578125 732 30.05 729.2685546875 24.4697265625 724.45 19.95 713.05 9.55 695.6 9.55 682.45 9.55 672.7 14.5 671.5255859375 15.083203125 670.4 15.75 665.601953125 18.596484375 661.7 22.75 658.2896484375 26.35703125 655.9 30.05 654.630859375 31.98828125 653.65 33.95 653.06015625 35.14296875 652.55 36.35 652.1505859375 37.2708984375 651.8 38.2 650.976171875 40.4259765625 650.4 42.7 649.262890625 47.20546875 649.1 51.9 649.1 52.5732421875 649.1 53.25 649.1 58.1599609375 650.4 63.3 651.337109375 67.0458984375 652.95 70.9
L 652.95 45.05 676.85 70 677.6 70.75
Q 672.1708984375 61.213671875 671.85 51.9 671.85 51.349609375 671.85 50.8 671.85 43.663671875 674.5 38.2 674.9876953125 37.2498046875 675.5 36.35 676.2875 35.1013671875 677.2 33.95
L 678.15 33
Q 679.5505859375 31.3263671875 681.2 30.05 686.4951171875 25.95 694.35 25.95 701.76484375 25.95 706.9 30.05 708.19453125 31.092578125 709.35 32.4
L 710.65 33.95
Q 711.6740234375 35.4859375 712.45 37.15 713.923046875 40.361328125 714.45 44.05
L 735.7 44.05
Q 735.3974609375 40.4869140625 734.55 37.15 734.1408203125 35.523046875 733.6 33.95 Z"/>
</g>
</defs>

<g transform="matrix( 1, 0, 0, 1, 0,0) ">
<use xlink:href="#Layer0_0_FILL"/>
</g>
</svg>
